<svg width="76" height="72" viewBox="0 0 76 72" fill="none" xmlns="http://www.w3.org/2000/svg">
<g id="Group">
<path id="Vector" d="M22.7468 26.1773L23.9301 25.8965V44.9681L20.4841 48.2788L17.0382 46.4886V33.4002C17.0375 29.9605 19.4005 26.971 22.7468 26.1773ZM4.55674 38.3131L0 37.6364L4.50657 39.9779L11.3985 43.5583V31.6219L10.2152 31.9027C7.13651 32.6337 4.89542 35.2246 4.55674 38.3131ZM39.7174 29.7989L36.4603 31.2811V20.1704L35.277 20.4512C31.9307 21.2457 29.5683 24.2345 29.5683 27.6735V39.5493L36.4603 32.9278L39.7174 29.7989Z" fill="#0874F2"/>
<path id="Vector_2" d="M22.7468 26.1773L23.9301 25.8965V44.9681L20.4841 48.2788L17.0382 46.4886V33.4002C17.0375 29.9605 19.4005 26.971 22.7468 26.1773ZM4.55674 38.3131L0 37.6364L4.50657 39.9779L11.3985 43.5583V31.6219L10.2152 31.9027C7.13651 32.6337 4.89542 35.2246 4.55674 38.3131ZM39.7174 29.7989L36.4603 31.2811V20.1704L35.277 20.4512C31.9307 21.2457 29.5683 24.2345 29.5683 27.6735V39.5493L36.4603 32.9278L39.7174 29.7989Z" fill="url(#paint0_linear_11_2709)"/>
<path id="Vector_3" d="M0 42.5445L20.4834 72L75.8411 0L20.4834 53.1862L0 42.5445Z" fill="#0874F2"/>
<path id="Vector_4" d="M0 42.5445L20.4834 72L75.8411 0L20.4834 53.1862L0 42.5445Z" fill="url(#paint1_linear_11_2709)"/>
</g>
<defs>
<linearGradient id="paint0_linear_11_2709" x1="21.3286" y1="56.5796" x2="19.73" y2="31.7132" gradientUnits="userSpaceOnUse">
<stop stop-color="#0874F2"/>
<stop offset="1" stop-color="#0874F2" stop-opacity="0"/>
</linearGradient>
<linearGradient id="paint1_linear_11_2709" x1="42.4484" y1="91.7048" x2="38.4085" y2="28.8603" gradientUnits="userSpaceOnUse">
<stop stop-color="#0874F2"/>
<stop offset="1" stop-color="#0874F2" stop-opacity="0"/>
</linearGradient>
</defs>
</svg>
