<svg width="24" height="25" viewBox="0 0 24 25" fill="none" xmlns="http://www.w3.org/2000/svg">
<g id="purse 1" clip-path="url(#clip0_11_2813)">
<path id="Vector" d="M21.1539 22.5058H2.84605C1.8703 22.5058 1.07928 21.7147 1.07928 20.739V5.4943C1.07928 4.51855 1.8703 3.72754 2.84605 3.72754H21.1539C22.1297 3.72754 22.9207 4.51855 22.9207 5.4943V20.739C22.9207 21.7147 22.1297 22.5058 21.1539 22.5058Z" fill="url(#paint0_linear_11_2813)"/>
<path id="Vector_2" d="M20.7456 22.087H3.25433C2.32208 22.087 1.56631 21.3312 1.56631 20.399V5.83426C1.56631 4.90201 2.32203 4.14624 3.25433 4.14624H20.7456C21.6778 4.14624 22.4336 4.90196 22.4336 5.83426V20.399C22.4337 21.3313 21.6779 22.087 20.7456 22.087Z" fill="url(#paint1_linear_11_2813)"/>
<path id="Vector_3" d="M21.7369 8.65862L17.3333 1.03131C17.04 0.523231 16.3902 0.349137 15.8821 0.642528L1.99786 8.65862H21.7369Z" fill="url(#paint2_linear_11_2813)"/>
<path id="Vector_4" d="M1.07928 14.7972H22.9207V9.01225C22.9207 8.28208 22.3288 7.69019 21.5986 7.69019H2.40135C1.67118 7.69019 1.07928 8.28208 1.07928 9.01225V14.7972Z" fill="url(#paint3_linear_11_2813)"/>
<path id="Vector_5" d="M1.07928 12.6215V20.7389C1.07928 21.7146 1.8703 22.5057 2.8461 22.5057H21.1539C22.1297 22.5057 22.9207 21.7147 22.9207 20.7389V12.6215C22.9207 12.0189 22.4321 11.5303 21.8294 11.5303H2.17053C1.56786 11.5303 1.07928 12.0188 1.07928 12.6215Z" fill="url(#paint4_linear_11_2813)"/>
<path id="Vector_6" d="M19.6256 8.43481V22.5058H21.1539C22.1297 22.5058 22.9207 21.7148 22.9207 20.739V11.7299L19.6256 8.43481Z" fill="url(#paint5_linear_11_2813)"/>
<path id="Vector_7" d="M18.1358 24.4867L2.80358 22.706C1.82071 22.5918 1.07928 21.7594 1.07928 20.7699V5.36255C1.07928 5.69367 1.32739 5.97221 1.65622 6.01041L18.5855 7.97663C19.5683 8.09081 20.3098 8.92327 20.3098 9.91275V22.5506C20.3098 23.7162 19.2936 24.6212 18.1358 24.4867Z" fill="url(#paint6_linear_11_2813)"/>
<path id="Vector_8" d="M18.1358 21.4092L2.80358 19.6285C1.82071 19.5143 1.07928 18.6819 1.07928 17.6924V20.7699C1.07928 21.7594 1.82071 22.5919 2.80358 22.706L18.1358 24.4867C19.2936 24.6212 20.3098 23.7162 20.3098 22.5506V19.4731C20.3098 20.6387 19.2936 21.5436 18.1358 21.4092Z" fill="url(#paint7_linear_11_2813)"/>
<path id="Vector_9" d="M2.4539 7.76401C2.44106 7.76401 2.42803 7.76326 2.41495 7.76185L1.71333 7.6847C1.51954 7.66337 1.37972 7.48909 1.40104 7.29535C1.42237 7.10162 1.59679 6.96193 1.79039 6.98307L2.49201 7.06023C2.68579 7.08156 2.82562 7.25584 2.80429 7.44957C2.78442 7.63028 2.63151 7.76401 2.4539 7.76401Z" fill="url(#paint8_linear_11_2813)"/>
<path id="Vector_10" d="M16.871 23.3238C16.8562 23.3238 16.8411 23.3229 16.826 23.321L15.4624 23.1476C15.2691 23.123 15.1322 22.9463 15.1568 22.7529C15.1814 22.5596 15.3581 22.4235 15.5515 22.4473L16.9151 22.6207C17.1084 22.6453 17.2454 22.822 17.2207 23.0154C17.198 23.1936 17.0461 23.3238 16.871 23.3238ZM18.2132 23.1491C18.0809 23.1491 17.9539 23.0743 17.8937 22.9465C17.8106 22.7702 17.8862 22.5599 18.0626 22.4769C18.4207 22.3081 18.69 22.0283 18.8015 21.7089C18.8657 21.525 19.0671 21.428 19.2511 21.4921C19.435 21.5564 19.5322 21.7577 19.4679 21.9417C19.2918 22.446 18.8996 22.8628 18.3634 23.1154C18.3148 23.1383 18.2637 23.1491 18.2132 23.1491ZM14.1438 22.9771C14.129 22.9771 14.1139 22.9761 14.0988 22.9742L12.7351 22.8008C12.5418 22.7762 12.4049 22.5995 12.4296 22.4061C12.4542 22.2128 12.6309 22.0767 12.8243 22.1005L14.1879 22.2739C14.3812 22.2985 14.5181 22.4752 14.4935 22.6686C14.4707 22.8468 14.3188 22.9771 14.1438 22.9771ZM11.4166 22.6302C11.4017 22.6302 11.3867 22.6292 11.3716 22.6274L10.0079 22.454C9.8146 22.4294 9.67768 22.2527 9.70233 22.0593C9.72694 21.866 9.90366 21.7292 10.097 21.7537L11.4607 21.9271C11.654 21.9517 11.7909 22.1284 11.7662 22.3218C11.7435 22.5 11.5915 22.6302 11.4166 22.6302ZM8.68922 22.2834C8.67441 22.2834 8.65937 22.2824 8.64423 22.2805L7.28054 22.1071C7.08718 22.0825 6.9503 21.9058 6.97496 21.7124C6.99957 21.5191 7.17633 21.3829 7.36965 21.4068L8.73333 21.5803C8.92669 21.6049 9.06357 21.7816 9.03891 21.975C9.01627 22.1532 8.8643 22.2834 8.68922 22.2834ZM5.96199 21.9366C5.94718 21.9366 5.93213 21.9356 5.91699 21.9337L4.5533 21.7603C4.35994 21.7357 4.22307 21.559 4.24772 21.3656C4.27233 21.1722 4.4491 21.0361 4.64241 21.06L6.0061 21.2334C6.19946 21.2581 6.33633 21.4347 6.31168 21.6281C6.28899 21.8064 6.13707 21.9366 5.96199 21.9366ZM19.2139 20.8127C19.0189 20.8127 18.861 20.6548 18.861 20.4598V19.0852C18.861 18.8903 19.0189 18.7323 19.2139 18.7323C19.4088 18.7323 19.5668 18.8903 19.5668 19.0852V20.4598C19.5668 20.6548 19.4089 20.8127 19.2139 20.8127ZM19.2139 18.0636C19.0189 18.0636 18.861 17.9056 18.861 17.7107V16.336C18.861 16.1411 19.0189 15.9831 19.2139 15.9831C19.4088 15.9831 19.5668 16.1411 19.5668 16.336V17.7107C19.5668 17.9056 19.4089 18.0636 19.2139 18.0636ZM19.2139 15.3144C19.0189 15.3144 18.861 15.1564 18.861 14.9614V13.5868C18.861 13.3919 19.0189 13.2339 19.2139 13.2339C19.4088 13.2339 19.5668 13.3919 19.5668 13.5868V14.9614C19.5668 15.1563 19.4089 15.3144 19.2139 15.3144ZM19.2139 12.5651C19.0189 12.5651 18.861 12.4072 18.861 12.2122V10.8376C18.861 10.6427 19.0189 10.4847 19.2139 10.4847C19.4088 10.4847 19.5668 10.6427 19.5668 10.8376V12.2122C19.5668 12.4071 19.4089 12.5651 19.2139 12.5651ZM18.7203 9.95678C18.6331 9.95678 18.5458 9.92467 18.4776 9.86003C18.216 9.61215 17.853 9.45423 17.4552 9.41528L17.4459 9.41429C17.2521 9.39343 17.1119 9.21939 17.1328 9.02561C17.1536 8.83178 17.3276 8.69153 17.5215 8.71248L17.5275 8.71314C18.0772 8.767 18.5882 8.99247 18.9631 9.34764C19.1047 9.4817 19.1107 9.70511 18.9766 9.84662C18.9071 9.91979 18.8138 9.95678 18.7203 9.95678ZM16.1176 9.26612C16.1048 9.26612 16.0918 9.26537 16.0787 9.26397L14.7123 9.11373C14.5186 9.0924 14.3787 8.91812 14.4001 8.72439C14.4214 8.53065 14.5958 8.3912 14.7894 8.41211L16.1558 8.56234C16.3495 8.58367 16.4894 8.75795 16.468 8.95168C16.4482 9.13234 16.2953 9.26612 16.1176 9.26612ZM13.385 8.96565C13.3721 8.96565 13.3591 8.9649 13.346 8.9635L11.9796 8.81326C11.7859 8.79194 11.646 8.61765 11.6673 8.42392C11.6886 8.23014 11.8633 8.09054 12.0567 8.11164L13.4231 8.26187C13.6168 8.2832 13.7567 8.45748 13.7354 8.65122C13.7155 8.83192 13.5626 8.96565 13.385 8.96565ZM10.6522 8.66523C10.6393 8.66523 10.6263 8.66448 10.6132 8.66308L9.24685 8.51284C9.05312 8.49151 8.91324 8.31723 8.93457 8.1235C8.95585 7.92976 9.13018 7.79017 9.32391 7.81122L10.6903 7.96145C10.884 7.98278 11.0239 8.15706 11.0026 8.35079C10.9827 8.53145 10.8298 8.66523 10.6522 8.66523ZM7.9194 8.36481C7.90655 8.36481 7.89352 8.36406 7.88044 8.36265L6.51408 8.21242C6.3203 8.19109 6.18047 8.01681 6.2018 7.82308C6.22308 7.62939 6.39722 7.48984 6.59115 7.51079L7.95751 7.66103C8.15124 7.68236 8.29112 7.85664 8.26979 8.05037C8.25001 8.23103 8.09705 8.36481 7.9194 8.36481ZM5.18663 8.06434C5.17379 8.06434 5.16076 8.06359 5.14768 8.06218L3.78132 7.91195C3.58758 7.89062 3.44771 7.71634 3.46904 7.52261C3.49037 7.32892 3.66455 7.18942 3.85838 7.21033L5.22474 7.36056C5.41852 7.38189 5.55835 7.55617 5.53702 7.7499C5.51719 7.93056 5.36424 8.06434 5.18663 8.06434Z" fill="url(#paint9_linear_11_2813)"/>
<path id="Vector_11" d="M3.23142 21.5894C3.21661 21.5894 3.20161 21.5885 3.18646 21.5866L2.4862 21.4975C2.29284 21.473 2.15592 21.2963 2.18057 21.1029C2.20514 20.9095 2.38186 20.7728 2.57521 20.7973L3.27548 20.8863C3.46884 20.9109 3.60576 21.0876 3.58111 21.2809C3.55842 21.4592 3.40645 21.5894 3.23142 21.5894Z" fill="url(#paint10_linear_11_2813)"/>
<path id="Vector_12" d="M16.1985 3.12811L13.9397 4.35726C13.6454 4.51734 13.2771 4.40864 13.117 4.1144C12.9569 3.82017 13.0656 3.45187 13.3599 3.29175L15.6187 2.06264C15.913 1.90256 16.2813 2.01126 16.4414 2.3055C16.6015 2.59969 16.4928 2.96803 16.1985 3.12811Z" fill="#61DB99"/>
<path id="Vector_13" d="M20.3098 17.5542L18.0682 15.3126C17.7519 14.9682 17.2981 14.7522 16.7936 14.7522C15.838 14.7522 15.0634 15.5269 15.0634 16.4824C15.0634 16.9869 15.2794 17.4408 15.6238 17.757L20.3098 22.443V17.5542H20.3098Z" fill="url(#paint11_linear_11_2813)"/>
<path id="Vector_14" d="M16.7934 18.2125C17.749 18.2125 18.5237 17.4378 18.5237 16.4822C18.5237 15.5266 17.749 14.752 16.7934 14.752C15.8378 14.752 15.0632 15.5266 15.0632 16.4822C15.0632 17.4378 15.8378 18.2125 16.7934 18.2125Z" fill="url(#paint12_linear_11_2813)"/>
<path id="Vector_15" d="M16.7934 17.6763C17.4529 17.6763 17.9875 17.1417 17.9875 16.4822C17.9875 15.8227 17.4529 15.2881 16.7934 15.2881C16.1339 15.2881 15.5993 15.8227 15.5993 16.4822C15.5993 17.1417 16.1339 17.6763 16.7934 17.6763Z" fill="url(#paint13_linear_11_2813)"/>
<path id="Vector_16" d="M16.3398 16.2757C16.4762 16.2757 16.5869 16.165 16.5869 16.0286C16.5869 15.8921 16.4762 15.7815 16.3398 15.7815C16.2033 15.7815 16.0927 15.8921 16.0927 16.0286C16.0927 16.165 16.2033 16.2757 16.3398 16.2757Z" fill="url(#paint14_linear_11_2813)"/>
<path id="Vector_17" d="M17.2471 16.2757C17.3835 16.2757 17.4942 16.165 17.4942 16.0286C17.4942 15.8921 17.3835 15.7815 17.2471 15.7815C17.1106 15.7815 17 15.8921 17 16.0286C17 16.165 17.1106 16.2757 17.2471 16.2757Z" fill="url(#paint15_linear_11_2813)"/>
<path id="Vector_18" d="M16.3398 17.1834C16.4762 17.1834 16.5869 17.0727 16.5869 16.9363C16.5869 16.7998 16.4762 16.6892 16.3398 16.6892C16.2033 16.6892 16.0927 16.7998 16.0927 16.9363C16.0927 17.0727 16.2033 17.1834 16.3398 17.1834Z" fill="url(#paint16_linear_11_2813)"/>
<path id="Vector_19" d="M17.2471 17.1834C17.3835 17.1834 17.4942 17.0727 17.4942 16.9363C17.4942 16.7998 17.3835 16.6892 17.2471 16.6892C17.1106 16.6892 17 16.7998 17 16.9363C17 17.0727 17.1106 17.1834 17.2471 17.1834Z" fill="url(#paint17_linear_11_2813)"/>
</g>
<defs>
<linearGradient id="paint0_linear_11_2813" x1="12.3569" y1="2.64516" x2="12.2294" y2="6.38419" gradientUnits="userSpaceOnUse">
<stop stop-color="#FFB92D"/>
<stop offset="1" stop-color="#F59500"/>
</linearGradient>
<linearGradient id="paint1_linear_11_2813" x1="12.9683" y1="5.12778" x2="12.6211" y2="7.99219" gradientUnits="userSpaceOnUse">
<stop stop-color="#FFB92D"/>
<stop offset="1" stop-color="#F59500"/>
</linearGradient>
<linearGradient id="paint2_linear_11_2813" x1="11.8671" y1="5.21242" x2="11.8671" y2="7.39449" gradientUnits="userSpaceOnUse">
<stop stop-color="#A7F3CE"/>
<stop offset="1" stop-color="#61DB99"/>
</linearGradient>
<linearGradient id="paint3_linear_11_2813" x1="11.9997" y1="8.98966" x2="11.9997" y2="15.1128" gradientUnits="userSpaceOnUse">
<stop stop-color="#FF4C54"/>
<stop offset="1" stop-color="#BE3F45"/>
</linearGradient>
<linearGradient id="paint4_linear_11_2813" x1="11.9997" y1="13.5364" x2="11.9997" y2="22.9931" gradientUnits="userSpaceOnUse">
<stop stop-color="#FF4C54"/>
<stop offset="1" stop-color="#BE3F45"/>
</linearGradient>
<linearGradient id="paint5_linear_11_2813" x1="21.6781" y1="15.4705" x2="20.0848" y2="15.4705" gradientUnits="userSpaceOnUse">
<stop stop-color="#BE3F45" stop-opacity="0"/>
<stop offset="1" stop-color="#BE3F45"/>
</linearGradient>
<linearGradient id="paint6_linear_11_2813" x1="7.4278" y1="13.8347" x2="15.5335" y2="17.5738" gradientUnits="userSpaceOnUse">
<stop stop-color="#FFB92D"/>
<stop offset="1" stop-color="#F59500"/>
</linearGradient>
<linearGradient id="paint7_linear_11_2813" x1="10.4361" y1="22.1598" x2="10.101" y2="24.7207" gradientUnits="userSpaceOnUse">
<stop stop-color="#BE3F45" stop-opacity="0"/>
<stop offset="1" stop-color="#BE3F45"/>
</linearGradient>
<linearGradient id="paint8_linear_11_2813" x1="2.1026" y1="6.98128" x2="2.1026" y2="23.3579" gradientUnits="userSpaceOnUse">
<stop stop-color="#FFF465"/>
<stop offset="1" stop-color="#FFE600"/>
</linearGradient>
<linearGradient id="paint9_linear_11_2813" x1="11.5166" y1="6.9817" x2="11.5166" y2="23.3239" gradientUnits="userSpaceOnUse">
<stop stop-color="#FFF465"/>
<stop offset="1" stop-color="#FFE600"/>
</linearGradient>
<linearGradient id="paint10_linear_11_2813" x1="2.88075" y1="6.98089" x2="2.88075" y2="23.357" gradientUnits="userSpaceOnUse">
<stop stop-color="#FFF465"/>
<stop offset="1" stop-color="#FFE600"/>
</linearGradient>
<linearGradient id="paint11_linear_11_2813" x1="19.1026" y1="18.792" x2="14.2538" y2="13.9432" gradientUnits="userSpaceOnUse">
<stop stop-color="#BE3F45" stop-opacity="0"/>
<stop offset="1" stop-color="#BE3F45"/>
</linearGradient>
<linearGradient id="paint12_linear_11_2813" x1="16.793" y1="15.3963" x2="16.793" y2="17.8984" gradientUnits="userSpaceOnUse">
<stop stop-color="#FF4C54"/>
<stop offset="1" stop-color="#BE3F45"/>
</linearGradient>
<linearGradient id="paint13_linear_11_2813" x1="16.7931" y1="17.232" x2="16.7931" y2="15.5055" gradientUnits="userSpaceOnUse">
<stop stop-color="#FF4C54"/>
<stop offset="1" stop-color="#BE3F45"/>
</linearGradient>
<linearGradient id="paint14_linear_11_2813" x1="13.9976" y1="5.68684" x2="14.4917" y2="7.86891" gradientUnits="userSpaceOnUse">
<stop stop-color="#A7F3CE"/>
<stop offset="1" stop-color="#61DB99"/>
</linearGradient>
<linearGradient id="paint15_linear_11_2813" x1="14.9049" y1="5.68694" x2="15.399" y2="7.86901" gradientUnits="userSpaceOnUse">
<stop stop-color="#A7F3CE"/>
<stop offset="1" stop-color="#61DB99"/>
</linearGradient>
<linearGradient id="paint16_linear_11_2813" x1="13.8021" y1="5.73107" x2="14.2962" y2="7.91314" gradientUnits="userSpaceOnUse">
<stop stop-color="#A7F3CE"/>
<stop offset="1" stop-color="#61DB99"/>
</linearGradient>
<linearGradient id="paint17_linear_11_2813" x1="14.7094" y1="5.73117" x2="15.2035" y2="7.91324" gradientUnits="userSpaceOnUse">
<stop stop-color="#A7F3CE"/>
<stop offset="1" stop-color="#61DB99"/>
</linearGradient>
<clipPath id="clip0_11_2813">
<rect width="24" height="24" fill="white" transform="translate(0 0.5)"/>
</clipPath>
</defs>
</svg>
