<svg width="24" height="24" viewBox="0 0 24 24" fill="none" xmlns="http://www.w3.org/2000/svg">
<g id="send 1">
<path id="Vector" fill-rule="evenodd" clip-rule="evenodd" d="M12.6374 16.4699L7.18135 21.9589C7.08137 21.7589 7.20001 21.5001 7.18135 21.2651L9.10001 15.8001C11.5025 15.8001 12.2506 15.347 12.6374 16.4699Z" fill="#46A350"/>
<path id="Vector_2" d="M21.8186 7.01619C22.27 6.22273 21.5094 5.28911 20.6412 5.57051L3.07959 11.2614C2.23451 11.5352 2.13941 12.6928 2.92847 13.1009L13.9974 18.8257C14.4742 19.0723 15.0607 18.8985 15.3261 18.4319L21.8186 7.01619Z" fill="#099718"/>
<path id="Vector_3" d="M13.9947 12.0338C14.3081 11.5866 13.8236 10.9639 13.3 11.2L6.81978 14.1684C6.46422 14.3312 6.23624 14.6864 6.23624 15.0775L6.90888 21.7908C6.93028 22.0044 7.22726 22.0388 7.29702 21.8358L9.01768 16.8303C9.13692 16.4834 9.34798 16.1772 9.62912 15.9416C10.7326 15.0168 13.6094 12.5838 13.9947 12.0338Z" fill="#005513"/>
<path id="Vector_4" d="M6.20001 7.8C6.20001 11.0033 8.79675 13.6 12 13.6C15.2033 13.6 17.8 11.0033 17.8 7.8C17.8 4.59674 15.2033 2 12 2C8.79675 2 6.20001 4.59674 6.20001 7.8Z" fill="#FFBA33"/>
<path id="Vector_5" fill-rule="evenodd" clip-rule="evenodd" d="M12.4 5.0001C12.4 4.77918 12.2209 4.6001 12 4.6001C11.7791 4.6001 11.6 4.77918 11.6 5.0001V5.4001H10.8244C10.3709 5.4001 10.0031 5.57876 9.75389 5.86616C9.51167 6.14548 9.39999 6.505 9.39999 6.8501C9.39999 7.1952 9.51167 7.55472 9.75389 7.83404C10.0031 8.12144 10.3709 8.3001 10.8244 8.3001H11.6V9.6001H10.0948C9.87387 9.6001 9.69479 9.77918 9.69479 10.0001C9.69479 10.221 9.87387 10.4001 10.0948 10.4001H11.6V10.8001C11.6 11.021 11.7791 11.2001 12 11.2001C12.2209 11.2001 12.4 11.021 12.4 10.8001V10.4001H13.1756C13.6291 10.4001 13.9969 10.2214 14.2461 9.93404C14.4883 9.65472 14.6 9.2952 14.6 8.9501C14.6 8.605 14.4883 8.24548 14.2461 7.96616C13.9969 7.67876 13.6291 7.5001 13.1756 7.5001H12.4V6.2001H13.761C13.9819 6.2001 14.161 6.02102 14.161 5.8001C14.161 5.57918 13.9819 5.4001 13.761 5.4001H12.4V5.0001ZM11.6 6.2001H10.8244C10.595 6.2001 10.4505 6.28394 10.3583 6.3903C10.2591 6.50472 10.2 6.6702 10.2 6.8501C10.2 7.03 10.2591 7.19548 10.3583 7.3099C10.4505 7.41626 10.595 7.5001 10.8244 7.5001H11.6V6.2001ZM12.4 8.3001V9.6001H13.1756C13.405 9.6001 13.5495 9.51626 13.6417 9.4099C13.7409 9.29548 13.8 9.13 13.8 8.9501C13.8 8.7702 13.7409 8.60472 13.6417 8.4903C13.5495 8.38394 13.405 8.3001 13.1756 8.3001H12.4Z" fill="white"/>
</g>
</svg>
