<svg width="25" height="25" viewBox="0 0 25 25" fill="none" xmlns="http://www.w3.org/2000/svg">
<g id="financial 1">
<g id="Group">
<g id="Group_2">
<g id="Group_3">
<g id="Group_4">
<path id="Vector" d="M22.312 21.6556H7.29876C7.01497 21.6556 6.78491 21.4255 6.78491 21.1418V14.0588C6.78491 13.775 7.01497 13.5449 7.29876 13.5449H22.312C22.5958 13.5449 22.8258 13.775 22.8258 14.0588V21.1418C22.8258 21.4255 22.5958 21.6556 22.312 21.6556Z" fill="#5A7A39"/>
</g>
<g id="Group_5">
<path id="Vector_2" d="M21.4556 20.7992H6.44237C6.15859 20.7992 5.92853 20.5691 5.92853 20.2853V13.2023C5.92853 12.9185 6.15859 12.6885 6.44237 12.6885H21.4556C21.7394 12.6885 21.9694 12.9185 21.9694 13.2023V20.2853C21.9694 20.5691 21.7394 20.7992 21.4556 20.7992Z" fill="#648940"/>
</g>
<g id="Group_6">
<path id="Vector_3" d="M20.5991 19.9427H5.58596C5.30218 19.9427 5.07211 19.7127 5.07211 19.4289V12.3459C5.07211 12.0621 5.30218 11.832 5.58596 11.832H20.5991C20.8829 11.832 21.1129 12.0621 21.1129 12.3459V19.4289C21.113 19.7127 20.883 19.9427 20.5991 19.9427Z" fill="#76A34F"/>
</g>
<g id="Group_7">
<path id="Vector_4" d="M20.4091 17.1848V14.5897C20.4091 14.5002 20.3401 14.4272 20.2509 14.4194C19.3541 14.3417 18.6395 13.6088 18.5651 12.6897C18.5579 12.6004 18.4845 12.531 18.3948 12.531H7.79022C7.7005 12.531 7.62719 12.6004 7.61997 12.6897C7.54553 13.6088 6.83097 14.3416 5.93416 14.4194C5.84509 14.4271 5.776 14.5002 5.776 14.5897V17.1848C5.776 17.2742 5.845 17.3472 5.93416 17.355C6.83097 17.4327 7.54553 18.1657 7.61997 19.0847C7.62719 19.174 7.70059 19.2434 7.79022 19.2434H18.3949C18.4847 19.2434 18.558 19.174 18.5652 19.0847C18.6396 18.1657 19.3542 17.4328 20.251 17.355C20.3401 17.3473 20.4091 17.2742 20.4091 17.1848Z" fill="#91B56B"/>
</g>
<g id="Group_8">
<path id="Vector_5" d="M13.0925 18.5339C14.5541 18.5339 15.739 17.349 15.739 15.8874C15.739 14.4258 14.5541 13.241 13.0925 13.241C11.6309 13.241 10.446 14.4258 10.446 15.8874C10.446 17.349 11.6309 18.5339 13.0925 18.5339Z" fill="white"/>
</g>
<g id="Group_9">
<g id="Group_10">
<path id="Vector_6" d="M13.3544 17.5154H12.8306C12.3662 17.5154 11.9883 17.1376 11.9883 16.6731C11.9883 16.5696 12.0723 16.4856 12.1758 16.4856C12.2793 16.4856 12.3633 16.5696 12.3633 16.6731C12.3633 16.9307 12.573 17.1404 12.8306 17.1404H13.3544C13.612 17.1404 13.8216 16.9307 13.8216 16.6731V16.4112C13.8216 16.1536 13.612 15.944 13.3544 15.944H12.8306C12.3662 15.944 11.9883 15.5662 11.9883 15.1018C11.9883 14.6373 12.3662 14.2595 12.8306 14.2595H13.3544C13.8188 14.2595 14.1966 14.6373 14.1966 15.1018C14.1966 15.2053 14.1126 15.2893 14.0091 15.2893C13.9056 15.2893 13.8216 15.2053 13.8216 15.1018C13.8216 14.8441 13.612 14.6345 13.3544 14.6345H12.8306C12.573 14.6345 12.3633 14.8441 12.3633 15.1018C12.3633 15.3594 12.573 15.569 12.8306 15.569H13.3544C13.8188 15.569 14.1966 15.9468 14.1966 16.4112V16.6731C14.1967 17.1376 13.8188 17.5154 13.3544 17.5154Z" fill="#648940"/>
</g>
<g id="Group_11">
<path id="Vector_7" d="M13.0925 17.7772C12.989 17.7772 12.905 17.6932 12.905 17.5897V14.1851C12.905 14.0816 12.989 13.9976 13.0925 13.9976C13.196 13.9976 13.28 14.0816 13.28 14.1851V17.5897C13.28 17.6933 13.1961 17.7772 13.0925 17.7772Z" fill="#648940"/>
</g>
</g>
</g>
<g id="Group_12">
<g id="Group_13">
<g id="Group_14">
<path id="Vector_8" d="M6.7791 14.6268C9.32232 14.6268 11.384 12.5651 11.384 10.0219C11.384 7.47868 9.32232 5.41699 6.7791 5.41699C4.23588 5.41699 2.17419 7.47868 2.17419 10.0219C2.17419 12.5651 4.23588 14.6268 6.7791 14.6268Z" fill="#FFA91A"/>
</g>
<g id="Group_15">
<path id="Vector_9" d="M2.85968 10.2097C2.75646 10.2097 2.67218 10.1254 2.67218 10.0222C2.67218 9.91903 2.75646 9.83466 2.85968 9.83466C2.96281 9.83466 3.04718 9.91903 3.04718 10.0222C3.04718 10.1254 2.96281 10.2097 2.85968 10.2097ZM2.93093 9.46444C2.91968 9.46444 2.90749 9.46341 2.89531 9.46069C2.84562 9.45122 2.80343 9.42319 2.77531 9.38194C2.74718 9.34069 2.73687 9.29006 2.74624 9.24131C2.93468 8.27006 3.46999 7.39716 4.25562 6.78403C4.46187 6.62278 4.68499 6.48038 4.91656 6.36216C5.00656 6.31631 5.12281 6.35372 5.16874 6.44372C5.19218 6.48788 5.19593 6.53944 5.17999 6.58716C5.16499 6.63403 5.13218 6.67341 5.08718 6.69591C4.87624 6.80372 4.67374 6.93309 4.48624 7.07934C3.7729 7.63716 3.28531 8.42934 3.11468 9.31059V9.31256C3.09781 9.40059 3.02093 9.46444 2.93093 9.46444Z" fill="#FFC91D"/>
</g>
<g id="Group_16">
<path id="Vector_10" d="M9.4129 6.24561C9.93453 6.99214 10.2415 7.89973 10.2415 8.87942C10.2415 11.4227 8.17981 13.4842 5.63665 13.4842C4.65687 13.4842 3.74928 13.1773 3.00284 12.6557C3.83524 13.8469 5.21571 14.6267 6.77918 14.6267C9.32234 14.6267 11.384 12.565 11.384 10.0219C11.3839 8.45848 10.6041 7.07801 9.4129 6.24561Z" fill="#F79219"/>
</g>
<g id="Group_17">
<path id="Vector_11" d="M9.73652 6.49316C10.4079 7.29332 10.8127 8.32457 10.8127 9.4507C10.8127 11.9939 8.75102 14.0555 6.20787 14.0555C5.08174 14.0555 4.05049 13.6507 3.25034 12.9794C4.09502 13.9861 5.36205 14.6267 6.77909 14.6267C9.32224 14.6267 11.3839 12.5651 11.3839 10.0219C11.3839 8.60488 10.7433 7.33785 9.73652 6.49316Z" fill="#EF7816"/>
</g>
</g>
<g id="Group_18">
<g id="Group_19">
<path id="Vector_12" d="M7.19816 12.6238H6.35994C5.67876 12.6238 5.12469 12.0698 5.12469 11.3886C5.12469 11.2851 5.20869 11.2011 5.31219 11.2011C5.41569 11.2011 5.49969 11.2851 5.49969 11.3886C5.49969 11.863 5.88557 12.2488 6.35994 12.2488H7.19816C7.67254 12.2488 8.05841 11.863 8.05841 11.3886V10.9694C8.05841 10.495 7.67254 10.1092 7.19816 10.1092H6.35994C5.67876 10.1092 5.12469 9.55511 5.12469 8.87392C5.12469 8.19273 5.67876 7.63867 6.35994 7.63867H7.19816C7.87935 7.63867 8.43341 8.19273 8.43341 8.87392C8.43341 8.97742 8.34941 9.06142 8.24591 9.06142C8.14241 9.06142 8.05841 8.97742 8.05841 8.87392C8.05841 8.39955 7.67254 8.01367 7.19816 8.01367H6.35994C5.88557 8.01367 5.49969 8.39955 5.49969 8.87392C5.49969 9.3483 5.88557 9.73417 6.35994 9.73417H7.19816C7.87935 9.73417 8.43341 10.2882 8.43341 10.9694V11.3886C8.43341 12.0698 7.87935 12.6238 7.19816 12.6238Z" fill="white"/>
</g>
<g id="Group_20">
<path id="Vector_13" d="M6.77911 13.0429C6.67561 13.0429 6.59161 12.9589 6.59161 12.8554V7.40723C6.59161 7.30373 6.67561 7.21973 6.77911 7.21973C6.88261 7.21973 6.96661 7.30373 6.96661 7.40723V12.8554C6.96661 12.959 6.88261 13.0429 6.77911 13.0429Z" fill="white"/>
</g>
</g>
</g>
</g>
<g id="Group_21">
<g id="Group_22">
<path id="Vector_14" d="M16.5218 10.5732C18.5179 10.5732 20.1361 8.95497 20.1361 6.95883C20.1361 4.96268 18.5179 3.34448 16.5218 3.34448C14.5256 3.34448 12.9074 4.96268 12.9074 6.95883C12.9074 8.95497 14.5256 10.5732 16.5218 10.5732Z" fill="#76A34F"/>
</g>
<g id="Group_23">
<path id="Vector_15" d="M19.0775 4.40312C18.9678 4.29343 18.8522 4.19321 18.7327 4.10059C19.832 5.51837 19.7319 7.56549 18.4302 8.8673C17.1284 10.1691 15.0812 10.2692 13.6635 9.16984C13.7562 9.28937 13.8563 9.40496 13.966 9.51465C15.3775 10.9261 17.6659 10.9261 19.0774 9.51465C20.4889 8.10315 20.489 5.81462 19.0775 4.40312Z" fill="#648940"/>
</g>
<g id="Group_24">
<g id="Group_25">
<path id="Vector_16" d="M16.1303 8.87421C15.9681 8.87421 15.8061 8.81233 15.6823 8.68868L14.4349 7.44124C14.1876 7.19383 14.1876 6.79277 14.4349 6.54536C14.6823 6.29805 15.0834 6.29805 15.3308 6.54536L16.1303 7.34496L17.7169 5.75824C17.9643 5.51093 18.3654 5.51093 18.6128 5.75824C18.8601 6.00564 18.8601 6.40671 18.6128 6.65411L16.5782 8.68868C16.4545 8.81233 16.2924 8.87421 16.1303 8.87421Z" fill="#FFC91D"/>
</g>
</g>
<g id="Group_26">
<g id="Group_27">
<path id="Vector_17" d="M15.8713 7.08616L15.3308 6.5455L15.3306 6.54541L15.8713 7.08616Z" fill="#377DE2"/>
</g>
<g id="Group_28">
<path id="Vector_18" d="M18.6128 5.75848C18.5674 5.7132 18.5158 5.67908 18.462 5.65039C18.59 5.89002 18.5558 6.19339 18.3537 6.39542L16.3192 8.42998C16.1954 8.55364 16.0334 8.61552 15.8712 8.61552C15.7091 8.61552 15.5471 8.55364 15.4233 8.42998L15.6822 8.68892C15.806 8.81258 15.968 8.87445 16.1302 8.87445C16.2924 8.87445 16.4544 8.81258 16.5781 8.68892L18.6127 6.65436C18.8602 6.40686 18.8602 6.00589 18.6128 5.75848Z" fill="#FFA91A"/>
</g>
</g>
</g>
</g>
</g>
</svg>
