<svg width="25" height="24" viewBox="0 0 25 24" fill="none" xmlns="http://www.w3.org/2000/svg">
<g id="money 1" clip-path="url(#clip0_11_2745)">
<path id="Vector" d="M24.5 19.2369L16.9042 14.4507V16.5269H12.5L11.9996 19.0419L12.5 21.9468H16.9042V24.0231L24.5 19.2369Z" fill="#0BD5DD"/>
<path id="Vector_2" d="M10.8777 16.527L6.33777 12.113V17.2308C6.33777 19.8313 8.45337 21.9469 11.0538 21.9469H12.5V16.527H10.8777Z" fill="#00E5EE"/>
<path id="Vector_3" d="M13.9462 2.12305H12.5L11.499 4.52759L12.5 7.54297H14.1223L18.6622 11.9569V6.83911C18.6622 4.23865 16.5466 2.12305 13.9462 2.12305Z" fill="#0DD141"/>
<path id="Vector_4" d="M8.09595 2.12311V0.046875L0.5 4.83307L8.09595 9.61908V7.54303H12.5V2.12311H8.09595Z" fill="#52E161"/>
<path id="Vector_5" d="M12.5 5.88037L11.9996 12.1834L12.5 18.1895C15.899 18.1895 18.6545 15.4339 18.6545 12.0349C18.6545 8.63593 15.899 5.88037 12.5 5.88037Z" fill="#FC7419"/>
<path id="Vector_6" d="M6.34564 12.0349C6.34564 15.4339 9.10101 18.1895 12.5 18.1895V5.88037C9.10101 5.88037 6.34564 8.63593 6.34564 12.0349Z" fill="#FDA102"/>
<path id="Vector_7" d="M12.5 5.17651L11.9996 5.67712L12.5 6.58423C15.5055 6.58423 17.9507 9.02942 17.9507 12.0349C17.9507 15.0404 15.5055 17.4856 12.5 17.4856L11.9996 18.1895L12.5 18.8931C16.2817 18.8931 19.3582 15.8166 19.3582 12.0349C19.3582 8.25323 16.2817 5.17651 12.5 5.17651Z" fill="#FDAE02"/>
<path id="Vector_8" d="M7.04932 12.0349C7.04932 9.02942 9.49451 6.58423 12.5 6.58423V5.17651C8.71832 5.17651 5.64178 8.25323 5.64178 12.0349C5.64178 15.8166 8.71832 18.8931 12.5 18.8931V17.4856C9.49451 17.4856 7.04932 15.0404 7.04932 12.0349Z" fill="#FDCB02"/>
<path id="Vector_9" d="M12.65 10.6036C13.1194 10.6036 13.6197 10.7345 14.1505 11.0038L14.6969 9.68787C14.2584 9.44159 13.7043 9.29547 13.1348 9.24164V8.41821H12.5L11.9996 10.1815L12.5 10.6087C12.5467 10.6056 12.5961 10.6036 12.65 10.6036Z" fill="#FDD535"/>
<path id="Vector_10" d="M12.5 11.2832L11.9996 12.1833L12.5 12.7946C12.8708 12.879 13.1348 12.9722 13.1348 13.1738C13.1348 13.3503 12.9653 13.4563 12.5 13.4653L11.9996 14.1854L12.5 15.6516H13.1348V14.7974C14.3276 14.5897 14.9278 13.8663 14.9278 13.0352C14.9278 11.5948 13.3606 11.483 12.5 11.2832Z" fill="#FDD535"/>
<g id="Group">
<path id="Vector_11" d="M12.4346 13.4662C11.8421 13.4662 11.165 13.2737 10.657 12.9736L10.0722 14.2971C10.534 14.5818 11.2803 14.7897 12.0499 14.8358V15.6516H12.5V13.4653C12.4786 13.4656 12.4573 13.4662 12.4346 13.4662Z" fill="#FEEA9A"/>
<path id="Vector_12" d="M12.0499 9.25702C10.7878 9.4339 10.1568 10.165 10.1568 11.0346C10.1568 12.4451 11.6255 12.5954 12.5 12.7946V11.2833C12.1744 11.2078 11.9498 11.1196 11.9498 10.9421C11.9498 10.7762 12.0875 10.6356 12.5 10.6087V8.41821H12.0499V9.25702Z" fill="#FEEA9A"/>
</g>
</g>
<defs>
<clipPath id="clip0_11_2745">
<rect width="24" height="24" fill="white" transform="translate(0.5)"/>
</clipPath>
</defs>
</svg>
